<?xml version="1.0" encoding="UTF-8"?>
<!DOCTYPE svg PUBLIC "-//W3C//DTD SVG 1.1//EN" "http://www.w3.org/Graphics/SVG/1.1/DTD/svg11.dtd">
<svg xmlns="http://www.w3.org/2000/svg" version="1.1" width="672px" height="117px" style="shape-rendering:geometricPrecision; text-rendering:geometricPrecision; image-rendering:optimizeQuality; fill-rule:evenodd; clip-rule:evenodd" xmlns:xlink="http://www.w3.org/1999/xlink">
<g><path style="opacity:0.794" fill="#fefffe" d="M 46.5,-0.5 C 53.5,-0.5 60.5,-0.5 67.5,-0.5C 102.431,9.65413 118.264,32.9875 115,69.5C 109.403,94.5945 94.2367,110.261 69.5,116.5C 61.8333,116.5 54.1667,116.5 46.5,116.5C 21.2628,110.385 5.59613,94.7186 -0.5,69.5C -0.5,62.1667 -0.5,54.8333 -0.5,47.5C 5.71957,22.2801 21.3862,6.28015 46.5,-0.5 Z M 82.5,8.5 C 80.4176,8.47199 78.5843,9.13865 77,10.5C 76.5439,11.7441 77.0439,12.5774 78.5,13C 76.1367,13.5885 75.1367,15.0885 75.5,17.5C 55.2951,10.176 38.1284,14.5093 24,30.5C 23.6258,29.5838 23.1258,28.7504 22.5,28C 19.666,27.9546 17.166,27.1213 15,25.5C 14.8333,26.1667 14.6667,26.8333 14.5,27.5C 15.2858,29.0411 16.2858,30.3744 17.5,31.5C 16.1938,31.879 14.8605,32.2124 13.5,32.5C 15.1693,33.6709 16.6693,35.0042 18,36.5C 18.9021,36.2568 19.7354,35.9234 20.5,35.5C 10.0098,59.0338 14.6765,78.8671 34.5,95C 57.9301,107.225 77.7634,103.058 94,82.5C 101.673,67.8848 102.506,52.8848 96.5,37.5C 99.0764,37.2782 99.9098,35.9449 99,33.5C 97.1598,34.8331 96.6598,34.6665 97.5,33C 99.76,31.3107 102.26,30.144 105,29.5C 118.973,57.7669 114.139,82.2669 90.5,103C 71.3048,115.427 51.3048,116.761 30.5,107C 5.28816,90.0396 -2.8785,66.8729 6,37.5C 10.4497,26.5535 17.6164,17.8868 27.5,11.5C 39.6123,3.50939 52.9456,0.676052 67.5,3C 72.995,3.77297 77.995,5.6063 82.5,8.5 Z M 82.5,8.5 C 84.0269,8.42702 85.0269,9.09368 85.5,10.5C 83.8212,10.7148 82.8212,10.0481 82.5,8.5 Z M 85.5,10.5 C 92.5001,13.659 98.1668,18.4923 102.5,25C 99.5945,26.0375 96.7612,27.2042 94,28.5C 93.8195,30.4884 93.9862,32.4884 94.5,34.5C 91.9704,31.3117 89.3038,28.145 86.5,25C 88.5155,24.5757 90.3488,23.7424 92,22.5C 97.7319,24.0902 98.5652,22.9236 94.5,19C 92.5789,18.6397 90.9122,17.8064 89.5,16.5C 88.5481,18.0453 88.2148,19.712 88.5,21.5C 86.857,21.4802 85.5237,22.1468 84.5,23.5C 82.5808,22.3875 80.9142,21.0542 79.5,19.5C 80.3894,16.7711 82.2227,14.7711 85,13.5C 85.4828,12.552 85.6495,11.552 85.5,10.5 Z M 66.5,17.5 C 79.0745,19.9486 88.0745,26.9486 93.5,38.5C 92.5,38.5 91.5,38.5 90.5,38.5C 87.5983,42.4254 84.5983,46.4254 81.5,50.5C 76.1185,56.3496 69.4518,59.1829 61.5,59C 56.5886,55.9223 52.9219,51.7557 50.5,46.5C 47.4599,52.0682 43.7933,57.2349 39.5,62C 37.4798,63.2166 35.4798,63.3833 33.5,62.5C 31.1924,59.0252 28.6924,55.6919 26,52.5C 23.8677,56.5909 21.201,60.2575 18,63.5C 17.8333,62.6667 17.6667,61.8333 17.5,61C 21.139,56.1105 23.639,50.6105 25,44.5C 26.0195,43.3128 27.1861,42.3128 28.5,41.5C 30.1737,46.1861 32.8404,50.1861 36.5,53.5C 39.1209,52.4196 41.2876,50.7529 43,48.5C 46,43.1667 49,37.8333 52,32.5C 55.1311,36.6328 58.6311,40.4662 62.5,44C 63.5,44.6667 64.5,44.6667 65.5,44C 70.5864,37.8283 74.9198,31.1616 78.5,24C 74.8814,21.0258 70.8814,18.8591 66.5,17.5 Z M 75.5,17.5 C 77.4832,17.1568 78.8166,17.8235 79.5,19.5C 77.847,19.3404 76.5137,18.6737 75.5,17.5 Z M 17.5,31.5 C 19.4995,32.6259 21.4995,32.7925 23.5,32C 22.3636,33.1451 21.3636,34.3117 20.5,35.5C 18.7706,34.7638 17.7706,33.4305 17.5,31.5 Z M 94.5,40.5 C 95.9313,41.7804 96.5979,43.4471 96.5,45.5C 95.0687,44.2196 94.4021,42.5529 94.5,40.5 Z M 96.5,45.5 C 100.184,54.881 99.8502,64.2143 95.5,73.5C 95.5,72.5 95.5,71.5 95.5,70.5C 87.7733,74.0206 79.7733,76.8539 71.5,79C 66.1667,79.6667 60.8333,79.6667 55.5,79C 48.2352,77.3738 40.9019,76.2071 33.5,75.5C 29.5089,76.0234 25.6756,77.0234 22,78.5C 21.7287,76.193 22.8953,75.0264 25.5,75C 35.9418,74.0387 46.2752,74.7054 56.5,77C 61.8333,77.6667 67.1667,77.6667 72.5,77C 80.505,74.7778 88.1717,71.7778 95.5,68C 97.1554,66.5557 97.822,64.7224 97.5,62.5C 88.6374,65.9548 79.6374,69.1215 70.5,72C 64.8333,72.6667 59.1667,72.6667 53.5,72C 46.5595,70.6513 39.5595,69.818 32.5,69.5C 28.34,69.3411 24.34,70.0078 20.5,71.5C 19.6919,71.1924 19.0253,70.6924 18.5,70C 23.3151,67.3382 28.4818,66.1715 34,66.5C 43.324,67.6319 52.6573,68.6319 62,69.5C 66.5683,69.5233 71.0683,69.0233 75.5,68C 82.7002,65.6556 89.7002,62.8223 96.5,59.5C 97.5688,54.8442 97.5688,50.1776 96.5,45.5 Z M 94.5,75.5 C 94.0075,77.8185 93.0075,79.8185 91.5,81.5C 91.6309,80.6236 91.2975,79.9569 90.5,79.5C 77.9377,86.8183 64.6044,88.8183 50.5,85.5C 50.3505,84.448 50.5172,83.448 51,82.5C 58.3526,84.4427 65.8526,84.9427 73.5,84C 80.7422,81.7104 87.7422,78.8771 94.5,75.5 Z M 27.5,81.5 C 47.2669,81.9098 47.1002,82.9098 27,84.5C 26.5,84.1667 26,83.8333 25.5,83.5C 26.2427,82.8182 26.9094,82.1515 27.5,81.5 Z"/></g>
<g><path style="opacity:0.53" fill="#fefffe" d="M 51.5,4.5 C 52.2216,4.91753 52.7216,5.5842 53,6.5C 54.4443,4.84464 56.2776,4.17798 58.5,4.5C 58.9383,7.89343 58.1049,10.8934 56,13.5C 55.3333,11.5 54.6667,9.5 54,7.5C 53.0857,9.6641 51.919,11.6641 50.5,13.5C 50.1667,13 49.8333,12.5 49.5,12C 50.5733,10.5838 50.5733,9.25042 49.5,8C 50.8228,7.18405 51.4894,6.01739 51.5,4.5 Z"/></g>
<g><path style="opacity:0.552" fill="#fefffe" d="M 66.5,4.5 C 68.9272,5.27885 68.9272,6.44552 66.5,8C 67.448,8.48278 68.448,8.64945 69.5,8.5C 69.762,9.97782 69.4287,11.3112 68.5,12.5C 63.9769,11.5661 63.3102,8.89943 66.5,4.5 Z"/></g>
<g><path style="opacity:0.523" fill="#fefffe" d="M 35.5,8.5 C 36.7899,9.05773 37.6232,10.0577 38,11.5C 40.125,10.1485 41.2917,10.8152 41.5,13.5C 40.7224,15.147 39.5557,16.4804 38,17.5C 35.7492,14.9828 34.9159,11.9828 35.5,8.5 Z"/></g>
<g><path style="opacity:0.513" fill="#fefffe" d="M 82.5,8.5 C 82.8212,10.0481 83.8212,10.7148 85.5,10.5C 85.6495,11.552 85.4828,12.552 85,13.5C 82.2227,14.7711 80.3894,16.7711 79.5,19.5C 78.8166,17.8235 77.4832,17.1568 75.5,17.5C 75.1367,15.0885 76.1367,13.5885 78.5,13C 77.0439,12.5774 76.5439,11.7441 77,10.5C 78.5843,9.13865 80.4176,8.47199 82.5,8.5 Z"/></g>
<g><path style="opacity:0.847" fill="#fefffe" d="M 498.5,8.5 C 504.442,7.90723 505.942,10.2406 503,15.5C 501.442,17.3589 499.609,18.8589 497.5,20C 499.723,20.6517 500.89,22.1517 501,24.5C 501.667,27.1667 501.667,29.8333 501,32.5C 499.604,34.5268 497.938,34.8602 496,33.5C 493.5,37.3333 490.333,40.5 486.5,43C 483.97,44.4217 481.303,44.755 478.5,44C 477.424,42.2739 477.257,40.4406 478,38.5C 480.363,33.0792 482.529,27.5792 484.5,22C 489.648,18.0191 494.315,13.5191 498.5,8.5 Z M 492.5,22.5 C 493.748,23.3339 494.415,24.6672 494.5,26.5C 494.167,27.8333 493.833,29.1667 493.5,30.5C 491.941,31.0736 490.441,31.7402 489,32.5C 488.502,29.5184 488.335,26.5184 488.5,23.5C 490.099,23.7678 491.432,23.4345 492.5,22.5 Z"/></g>
<g><path style="opacity:0.828" fill="#fefffe" d="M 521.5,8.5 C 523.451,8.22672 524.951,8.89339 526,10.5C 526.539,16.9414 525.872,23.2748 524,29.5C 521.96,32.1967 519.96,34.8633 518,37.5C 516.991,45.223 515.657,52.8896 514,60.5C 510.848,64.1545 507.514,64.1545 504,60.5C 499.5,65.6667 495,70.8333 490.5,76C 486.513,76.339 485.013,74.5057 486,70.5C 490.801,66.701 495.301,62.5343 499.5,58C 498.421,57.044 497.255,56.2106 496,55.5C 495.303,51.4649 495.47,47.4649 496.5,43.5C 496.278,41.9446 495.611,40.6113 494.5,39.5C 501.11,37.4675 503.11,39.4675 500.5,45.5C 504.438,47.899 504.438,50.399 500.5,53C 503.022,53.9567 505.189,55.4567 507,57.5C 508.379,50.2698 509.879,43.1031 511.5,36C 508.2,36.0455 504.866,36.2122 501.5,36.5C 502.195,34.0219 503.695,32.0219 506,30.5C 507.623,27.6731 508.79,24.6731 509.5,21.5C 508.443,21.0941 507.109,21.0941 505.5,21.5C 505.104,18.9556 505.771,16.7889 507.5,15C 512.137,12.5111 516.804,10.3445 521.5,8.5 Z M 518.5,15.5 C 519.376,15.3691 520.043,15.7025 520.5,16.5C 519.487,20.2195 518.32,23.8862 517,27.5C 516.739,23.3987 517.239,19.3987 518.5,15.5 Z"/></g>
<g><path style="opacity:0.763" fill="#fefffe" d="M 176.5,9.5 C 178.977,9.05078 180.977,9.71745 182.5,11.5C 177.477,17.3592 173.477,23.8592 170.5,31C 172.443,30.6948 174.443,30.6948 176.5,31C 177.059,31.7247 177.392,32.5581 177.5,33.5C 175.443,38.6152 173.109,43.6152 170.5,48.5C 170.667,48.8333 170.833,49.1667 171,49.5C 188.353,38.702 196.02,43.3686 194,63.5C 189.029,77.5991 183.696,77.9324 178,64.5C 172.292,69.0582 167.792,68.0582 164.5,61.5C 164.709,60.914 165.043,60.414 165.5,60C 169.541,59.8265 173.541,59.3265 177.5,58.5C 179.076,56.0207 180.076,53.354 180.5,50.5C 182.912,50.244 184.579,51.244 185.5,53.5C 184.363,55.6068 183.363,57.7735 182.5,60C 183.461,62.0817 184.794,63.915 186.5,65.5C 185.624,66.2508 184.624,66.7508 183.5,67C 184.333,67.8333 185.167,68.6667 186,69.5C 192.097,62.2773 192.597,54.7773 187.5,47C 185.447,46.6753 183.447,47.0087 181.5,48C 176.731,50.4646 172.231,53.2979 168,56.5C 166.378,56.0459 165.212,55.0459 164.5,53.5C 166.935,48.0238 169.268,42.5238 171.5,37C 168.795,37.4978 166.462,36.4978 164.5,34C 166.067,30.4745 167.733,26.9745 169.5,23.5C 169.167,23.1667 168.833,22.8333 168.5,22.5C 166.833,23.8333 165.167,25.1667 163.5,26.5C 162.369,24.9255 162.202,23.2588 163,21.5C 166.645,16.445 171.145,12.445 176.5,9.5 Z"/></g>
<g><path style="opacity:0.882" fill="#fefffe" d="M 583.5,9.5 C 586.85,9.33499 590.183,9.50166 593.5,10C 596.29,12.2103 597.123,15.0437 596,18.5C 593.203,22.2988 590.036,25.7988 586.5,29C 580.518,33.3189 574.851,37.9856 569.5,43C 574.041,45.4277 576.041,49.2611 575.5,54.5C 590.47,50.9184 592.47,54.085 581.5,64C 584.223,68.9228 582.89,72.5895 577.5,75C 574.77,75.7284 572.103,75.5617 569.5,74.5C 567.477,76.1733 565.144,76.8399 562.5,76.5C 562.297,74.6096 562.963,73.1096 564.5,72C 560.491,67.8002 560.991,63.9669 566,60.5C 566.818,57.7728 566.652,55.1062 565.5,52.5C 559.56,56.0711 557.394,54.4044 559,47.5C 562.103,43.3931 565.603,39.5597 569.5,36C 565.208,34.6043 561.708,32.1043 559,28.5C 558.333,27.1667 558.333,25.8333 559,24.5C 562.205,22.3144 565.705,20.8144 569.5,20C 574.056,16.236 578.723,12.736 583.5,9.5 Z M 577.5,23.5 C 578.239,23.369 578.906,23.5357 579.5,24C 576.979,26.2198 574.812,28.7198 573,31.5C 572.333,30.1667 572.333,28.8333 573,27.5C 574.667,26.2668 576.167,24.9335 577.5,23.5 Z"/></g>
<g><path style="opacity:0.826" fill="#fefffe" d="M 385.5,10.5 C 394.533,10.7524 395.867,14.2524 389.5,21C 391.473,21.4955 393.473,21.6621 395.5,21.5C 396.006,25.9857 394.672,29.819 391.5,33C 392.563,34.1882 393.897,34.6882 395.5,34.5C 395.66,36.1992 395.494,37.8659 395,39.5C 392.354,42.9802 389.521,46.3135 386.5,49.5C 391.166,50.3174 393.333,52.9841 393,57.5C 390.066,61.6232 386.232,64.2898 381.5,65.5C 381.853,62.1215 383.187,59.1215 385.5,56.5C 383.257,55.5258 380.924,55.1924 378.5,55.5C 378.296,51.7804 379.296,48.447 381.5,45.5C 381.333,45.1667 381.167,44.8333 381,44.5C 379.266,46.4506 377.099,47.4506 374.5,47.5C 374.628,44.487 373.628,41.987 371.5,40C 372.91,37.1816 374.577,34.5149 376.5,32C 374.527,31.5045 372.527,31.3379 370.5,31.5C 370.281,30.325 370.614,29.325 371.5,28.5C 374.746,26.9608 377.912,25.2941 381,23.5C 382.301,21.5979 382.968,19.5979 383,17.5C 377.542,21.4795 371.708,24.8128 365.5,27.5C 359.988,38.5454 356.488,50.2121 355,62.5C 352.893,67.0523 350.56,71.3856 348,75.5C 345.924,74.2063 344.424,72.3729 343.5,70C 344.831,61.1907 345.664,52.3574 346,43.5C 341.814,44.6497 340.148,42.983 341,38.5C 344.336,36.7906 347.836,35.9573 351.5,36C 353.007,37.4733 353.674,39.3066 353.5,41.5C 352.862,44.5028 352.695,47.5028 353,50.5C 355.202,41.2268 358.202,32.2268 362,23.5C 369.235,17.9683 377.069,13.6349 385.5,10.5 Z M 389.5,25.5 C 387.692,30.9788 384.358,35.3121 379.5,38.5C 381.308,33.0212 384.642,28.6879 389.5,25.5 Z"/></g>
<g><path style="opacity:0.528" fill="#fefffe" d="M 27.5,11.5 C 29.9448,13.6716 31.9448,16.3383 33.5,19.5C 33.1667,19.8333 32.8333,20.1667 32.5,20.5C 31.6667,19.5 30.8333,18.5 30,17.5C 30.1953,19.1261 30.1953,20.7928 30,22.5C 29.1627,20.9926 27.9961,20.4926 26.5,21C 27.731,22.1827 27.731,23.3493 26.5,24.5C 24.1134,21.1221 24.4467,17.9554 27.5,15C 26.8288,14.0138 26.8288,12.8471 27.5,11.5 Z"/></g>
<g><path style="opacity:0.733" fill="#fefffe" d="M 143.5,11.5 C 148.702,11.5622 149.869,13.8955 147,18.5C 145.989,19.3366 144.822,19.67 143.5,19.5C 144.371,16.7284 144.371,14.0618 143.5,11.5 Z"/></g>
<g><path style="opacity:0.829" fill="#fefffe" d="M 257.5,11.5 C 259.467,11.2606 261.301,11.5939 263,12.5C 264.079,15.7121 264.579,19.0454 264.5,22.5C 262.605,39.7841 261.438,57.1174 261,74.5C 258.52,76.0897 256.687,75.5897 255.5,73C 255.369,56.0207 256.369,39.0207 258.5,22C 258.72,18.8838 258.053,16.0505 256.5,13.5C 256.863,12.8165 257.196,12.1499 257.5,11.5 Z"/></g>
<g><path style="opacity:0.833" fill="#fefffe" d="M 671.5,60.5 C 671.5,62.8333 671.5,65.1667 671.5,67.5C 662.528,71.5753 653.195,74.0753 643.5,75C 640.227,74.0596 638.394,71.8929 638,68.5C 637.781,63.4848 637.781,58.4848 638,53.5C 634.681,60.1439 630.014,65.4772 624,69.5C 622.635,68.4071 622.301,67.0738 623,65.5C 625.336,60.8249 628.169,56.4916 631.5,52.5C 629.054,51.573 628.221,49.9063 629,47.5C 631.593,45.4514 634.093,43.2848 636.5,41C 633.641,39.3091 632.308,36.8091 632.5,33.5C 630.418,34.5849 630.084,36.0849 631.5,38C 628.15,40.2084 624.65,40.7084 621,39.5C 619.469,48.475 618.136,57.475 617,66.5C 615.951,67.5171 614.784,67.6838 613.5,67C 612.873,65.2622 612.54,63.4289 612.5,61.5C 613.463,52.3294 614.463,43.1627 615.5,34C 615.42,32.1063 615.087,30.2729 614.5,28.5C 616.396,27.5344 618.396,27.2011 620.5,27.5C 620.785,25.712 620.452,24.0453 619.5,22.5C 615.61,23.8173 613.276,22.3173 612.5,18C 615.136,16.0094 617.802,14.0094 620.5,12C 623.429,11.2228 626.263,11.3895 629,12.5C 628.465,17.0855 626.632,21.2521 623.5,25C 624.525,27.0715 625.358,29.2381 626,31.5C 627.473,27.2211 629.473,23.2211 632,19.5C 633.73,19.4908 635.563,19.1575 637.5,18.5C 638.833,16.5 640.167,14.5 641.5,12.5C 642.723,11.3861 644.056,11.2195 645.5,12C 646.399,13.2362 647.566,14.0696 649,14.5C 651.787,13.4826 654.62,13.3159 657.5,14C 658.554,15.3876 658.72,16.8876 658,18.5C 654.09,22.2084 649.59,25.0417 644.5,27C 645.728,27.779 646.728,28.779 647.5,30C 646.375,31.9626 645.041,33.796 643.5,35.5C 645.375,36.5403 646.708,38.0403 647.5,40C 645.285,42.9256 644.952,46.0923 646.5,49.5C 644.615,55.7828 643.948,62.1161 644.5,68.5C 644.833,69.1667 645.167,69.8333 645.5,70.5C 651.178,68.4965 656.844,66.4965 662.5,64.5C 663.833,63.5 663.833,62.5 662.5,61.5C 659.553,60.2195 657.219,58.2195 655.5,55.5C 655.833,54.5 656.5,53.8333 657.5,53.5C 662.22,55.8599 666.886,58.1932 671.5,60.5 Z M 632.5,33.5 C 633.532,30.1004 635.532,27.4338 638.5,25.5C 639.292,27.1949 638.958,28.8615 637.5,30.5C 635.64,31.2599 633.973,32.2599 632.5,33.5 Z M 621.5,33.5 C 623.983,33.73 624.483,34.3966 623,35.5C 621.97,35.1639 621.47,34.4972 621.5,33.5 Z"/></g>
<g><path style="opacity:0.84" fill="#fefffe" d="M 281.5,16.5 C 283.586,17.1485 284.586,18.6485 284.5,21C 282.778,28.2305 280.444,35.2305 277.5,42C 283.585,41.9741 289.251,40.3074 294.5,37C 299.09,35.3848 301.923,36.8848 303,41.5C 303.999,47.4816 304.332,53.4816 304,59.5C 300.162,64.8641 296.996,64.3641 294.5,58C 296.218,52.6289 297.052,47.1289 297,41.5C 294.708,42.7899 292.708,44.4565 291,46.5C 289.61,53.0051 287.61,59.3384 285,65.5C 278.921,72.7063 275.755,71.373 275.5,61.5C 275.808,56.7714 276.974,52.4381 279,48.5C 276.603,50.7823 273.769,52.1156 270.5,52.5C 271.337,39.655 275.003,27.655 281.5,16.5 Z M 281.5,54.5 C 282.465,55.7211 282.298,57.0544 281,58.5C 280.421,57.0715 280.588,55.7382 281.5,54.5 Z"/></g>
<g><path style="opacity:0.84" fill="#fefffe" d="M 414.5,16.5 C 415.496,16.4142 416.329,16.7476 417,17.5C 417.309,18.7659 417.809,19.9326 418.5,21C 416.673,27.9811 414.339,34.8144 411.5,41.5C 417.547,41.9935 423.214,40.4935 428.5,37C 430.5,36.3333 432.5,36.3333 434.5,37C 437.117,42.8852 438.45,48.8852 438.5,55C 438.096,58.0873 436.763,60.754 434.5,63C 432.924,63.3876 431.591,62.8876 430.5,61.5C 429.926,59.9411 429.26,58.4411 428.5,57C 430.058,51.9384 430.891,46.7717 431,41.5C 428.372,43.1255 426.039,45.1255 424,47.5C 422.867,54.8978 420.534,61.8978 417,68.5C 415.211,70.229 413.044,70.8957 410.5,70.5C 408.635,63.5384 409.302,56.8717 412.5,50.5C 412.167,50.1667 411.833,49.8333 411.5,49.5C 409.513,51.3274 407.179,52.3274 404.5,52.5C 404.335,49.1501 404.502,45.8168 405,42.5C 407.902,33.7038 411.069,25.0372 414.5,16.5 Z"/></g>
<g><path style="opacity:0.797" fill="#fefffe" d="M 347.5,18.5 C 350.5,19.1667 353.5,19.8333 356.5,20.5C 356.54,26.3464 353.54,29.3464 347.5,29.5C 348.32,25.651 348.32,21.9844 347.5,18.5 Z"/></g>
<g><path style="opacity:0.845" fill="#fefffe" d="M 252.5,19.5 C 253.649,19.7911 254.316,20.6244 254.5,22C 253.293,25.9528 252.293,29.9528 251.5,34C 252.107,37.1429 252.441,40.3095 252.5,43.5C 249.894,42.8641 247.394,42.8641 245,43.5C 244.027,45.3921 243.36,47.3921 243,49.5C 242.495,54.8844 242.495,60.2178 243,65.5C 239.174,69.3729 236.341,68.5395 234.5,63C 236.538,51.8606 238.038,40.694 239,29.5C 237,33.5 235,37.5 233,41.5C 233,44.1667 233,46.8333 233,49.5C 229.592,51.2233 227.259,50.2233 226,46.5C 221.84,53.6365 218.84,61.3032 217,69.5C 212.481,71.1629 210.314,69.4963 210.5,64.5C 211.885,57.1808 214.552,50.3474 218.5,44C 214.721,42.8902 214.554,41.3902 218,39.5C 219.085,40.2931 220.252,40.9598 221.5,41.5C 223.67,39.9138 226.004,38.5804 228.5,37.5C 231.224,32.5545 234.557,28.0545 238.5,24C 240.112,23.2797 241.612,23.4464 243,24.5C 244.153,27.7111 244.82,31.0445 245,34.5C 248.038,29.7568 250.538,24.7568 252.5,19.5 Z"/></g>
<g><path style="opacity:0.823" fill="#fefffe" d="M 143.5,25.5 C 145.5,25.5 147.5,25.5 149.5,25.5C 149.314,32.8807 149.814,40.2141 151,47.5C 152.164,45.3512 153.33,43.1846 154.5,41C 154.833,40.8333 155.167,40.6667 155.5,40.5C 155.833,41.3333 156.167,42.1667 156.5,43C 154.91,49.1923 153.244,55.3589 151.5,61.5C 152.794,66.8475 153.127,72.1809 152.5,77.5C 150.167,76.5 148.5,74.8333 147.5,72.5C 144.833,73.8333 142.167,73.8333 139.5,72.5C 139.167,71.3333 138.833,70.1667 138.5,69C 140.529,59.2204 142.862,49.5538 145.5,40C 144.167,38 144.167,36 145.5,34C 137.339,33.1551 136.673,30.3217 143.5,25.5 Z"/></g>
<g><path style="opacity:0.62" fill="#fefffe" d="M 17.5,31.5 C 17.7706,33.4305 18.7706,34.7638 20.5,35.5C 19.7354,35.9234 18.9021,36.2568 18,36.5C 16.6693,35.0042 15.1693,33.6709 13.5,32.5C 14.8605,32.2124 16.1938,31.879 17.5,31.5 Z"/></g>
<g><path style="opacity:0.815" fill="#fefffe" d="M 557.5,31.5 C 559.344,32.2039 559.844,33.5372 559,35.5C 557.26,40.2265 554.426,44.0598 550.5,47C 546.74,48.1762 543.907,47.0096 542,43.5C 541.219,42.0563 541.386,40.723 542.5,39.5C 547.72,37.0591 552.72,34.3924 557.5,31.5 Z"/></g>
<g><path style="opacity:0.531" fill="#fefffe" d="M 104.5,44.5 C 105.688,45.0476 106.855,45.3809 108,45.5C 108.453,48.8404 108.953,52.1738 109.5,55.5C 108.888,57.3381 108.888,59.0047 109.5,60.5C 108.624,61.2508 107.624,61.7508 106.5,62C 107.308,62.3076 107.975,62.8076 108.5,63.5C 107.635,63.5639 106.635,63.8973 105.5,64.5C 105.167,64 104.833,63.5 104.5,63C 104.764,60.2724 105.764,57.9391 107.5,56C 104.833,55 104.833,54 107.5,53C 106.552,52.5172 105.552,52.3505 104.5,52.5C 104.753,50.1727 104.086,48.1727 102.5,46.5C 103.243,45.8182 103.909,45.1515 104.5,44.5 Z"/></g>
<g><path style="opacity:0.786" fill="#fefffe" d="M 210.5,44.5 C 211.5,44.5 212.5,44.5 213.5,44.5C 213.409,48.1823 212.076,51.349 209.5,54C 204.165,55.1667 201.831,53.0001 202.5,47.5C 205.443,47.0198 208.11,46.0198 210.5,44.5 Z"/></g>
<g><path style="opacity:0.788" fill="#fefffe" d="M 317.5,44.5 C 322.606,46.0931 326.773,49.0931 330,53.5C 330.089,57.71 328.256,58.5433 324.5,56C 322.667,52.8333 320.167,50.3333 317,48.5C 316.421,47.0715 316.588,45.7382 317.5,44.5 Z"/></g>
<g><path style="opacity:0.789" fill="#fefffe" d="M 451.5,44.5 C 456.655,46.1578 460.822,49.1578 464,53.5C 464.089,57.71 462.256,58.5433 458.5,56C 456.667,52.8333 454.167,50.3333 451,48.5C 450.421,47.0715 450.588,45.7382 451.5,44.5 Z"/></g>
<g><path style="opacity:0.778" fill="#fefffe" d="M 491.5,44.5 C 492.787,45.8714 493.453,47.7047 493.5,50C 493.183,54.9203 492.349,59.7536 491,64.5C 490.439,65.0219 489.772,65.3552 489,65.5C 486.929,63.8599 485.762,61.6933 485.5,59C 487.367,54.1004 489.367,49.267 491.5,44.5 Z"/></g>
<g><path style="opacity:0.575" fill="#fefffe" d="M 7.5,46.5 C 8.56764,45.5655 9.90097,45.2322 11.5,45.5C 11.5,46.5 11.5,47.5 11.5,48.5C 9.80072,48.4729 8.46739,47.8062 7.5,46.5 Z"/></g>
<g><path style="opacity:0.606" fill="#fefffe" d="M 6.5,49.5 C 10.8926,49.4568 11.2259,49.9568 7.5,51C 10.8605,51.961 11.1938,53.7943 8.5,56.5C 7.57451,55.3595 6.74117,55.3595 6,56.5C 5.98221,54.2028 6.14888,51.8695 6.5,49.5 Z"/></g>
<g><path style="opacity:0.781" fill="#fefffe" d="M 5.5,58.5 C 6.60093,57.4017 7.93426,57.235 9.5,58C 8.16667,58.6667 8.16667,59.3333 9.5,60C 8.16667,60.6667 6.83333,60.6667 5.5,60C 6.73834,59.31 6.73834,58.81 5.5,58.5 Z"/></g>
<g><path style="opacity:0.491" fill="#fefffe" d="M 5.5,61.5 C 7.16667,61.5 8.83333,61.5 10.5,61.5C 10.162,64.0115 10.162,66.3448 10.5,68.5C 9.31116,69.4287 7.97782,69.762 6.5,69.5C 6.16667,66.8333 5.83333,64.1667 5.5,61.5 Z"/></g>
<g><path style="opacity:0.822" fill="#fefffe" d="M 511.5,64.5 C 515.642,66.1195 519.142,68.7862 522,72.5C 522.72,74.1124 522.554,75.6124 521.5,77C 519.098,77.8141 516.765,77.6474 514.5,76.5C 514.931,75.7065 515.265,74.8732 515.5,74C 513.476,71.1194 512.143,67.9527 511.5,64.5 Z"/></g>
<g><path style="opacity:0.514" fill="#fefffe" d="M 103.5,66.5 C 105.167,66.5 106.833,66.5 108.5,66.5C 108.683,68.9363 108.016,71.103 106.5,73C 107.706,74.0177 107.373,74.5177 105.5,74.5C 103.734,74.5658 102.734,73.7324 102.5,72C 103.233,70.2341 103.567,68.4008 103.5,66.5 Z"/></g>
<g><path style="opacity:0.502" fill="#fefffe" d="M 18.5,91.5 C 17.7553,90.2012 16.2553,88.8678 14,87.5C 12.1671,84.0025 10.3338,80.5025 8.5,77C 7.75984,75.2717 7.75984,73.2717 8.5,71C 9.94371,70.2195 11.277,70.3861 12.5,71.5C 11.624,72.2508 10.624,72.7508 9.5,73C 12.5436,74.5475 14.5436,77.0475 15.5,80.5C 15.2907,81.086 14.9574,81.586 14.5,82C 15.9308,82.4652 17.0975,83.2986 18,84.5C 21.0264,90.5963 25.1931,94.9297 30.5,97.5C 29.1667,98.5 27.8333,99.5 26.5,100.5C 25.4104,99.6086 25.4104,98.6086 26.5,97.5C 24.9018,97.3903 23.2352,97.057 21.5,96.5C 19.679,95.2723 18.679,93.6056 18.5,91.5 Z"/></g>
<g><path style="opacity:0.496" fill="#fefffe" d="M 101.5,75.5 C 106.118,74.9748 107.118,76.3081 104.5,79.5C 102.712,78.7174 101.712,77.3841 101.5,75.5 Z"/></g>
<g><path style="opacity:0.499" fill="#fefffe" d="M 95.5,92.5 C 95.5,93.5 95.5,94.5 95.5,95.5C 93.857,95.4802 92.5237,96.1468 91.5,97.5C 90.646,96.4783 89.646,95.6449 88.5,95C 89.7014,94.0975 90.5348,92.9308 91,91.5C 91.3826,92.056 91.8826,92.3893 92.5,92.5C 94.6003,87.9614 96.9336,83.628 99.5,79.5C 101.948,79.0847 103.281,80.0847 103.5,82.5C 101.815,85.8701 100.148,89.2034 98.5,92.5C 97.5,92.5 96.5,92.5 95.5,92.5 Z"/></g>
<g><path style="opacity:0.754" fill="#fefffe" d="M 140.5,88.5 C 143.247,88.1866 145.914,88.52 148.5,89.5C 146.604,90.4656 144.604,90.7989 142.5,90.5C 142.5,91.5 142.5,92.5 142.5,93.5C 149.167,94.1667 149.167,94.8333 142.5,95.5C 142.799,97.604 142.466,99.604 141.5,101.5C 140.508,97.2172 140.174,92.8839 140.5,88.5 Z"/></g>
<g><path style="opacity:0.75" fill="#fefffe" d="M 150.5,88.5 C 152.25,91.3554 153.083,94.6887 153,98.5C 154.667,99.8333 156.333,99.8333 158,98.5C 158.176,95.1182 158.676,91.7848 159.5,88.5C 160.798,92.7154 160.798,96.8821 159.5,101C 156.571,101.777 153.737,101.61 151,100.5C 150.501,96.5138 150.334,92.5138 150.5,88.5 Z"/></g>
<g><path style="opacity:0.714" fill="#fefffe" d="M 161.5,88.5 C 164.833,88.5 168.167,88.5 171.5,88.5C 170.569,92.8413 168.236,96.3413 164.5,99C 166.9,99.1858 169.234,99.6858 171.5,100.5C 168.232,101.487 164.898,101.82 161.5,101.5C 162.452,97.6042 164.452,94.2709 167.5,91.5C 165.025,91.0358 163.025,90.0358 161.5,88.5 Z"/></g>
<g><path style="opacity:0.787" fill="#fefffe" d="M 173.5,88.5 C 175.256,89.5521 175.923,91.2188 175.5,93.5C 177.167,93.5 178.833,93.5 180.5,93.5C 180.215,91.712 180.548,90.0453 181.5,88.5C 182.833,92.8333 182.833,97.1667 181.5,101.5C 180.534,99.604 180.201,97.604 180.5,95.5C 178.833,95.5 177.167,95.5 175.5,95.5C 175.799,97.604 175.466,99.604 174.5,101.5C 173.508,97.2172 173.174,92.8839 173.5,88.5 Z"/></g>
<g><path style="opacity:0.612" fill="#fefffe" d="M 186.5,88.5 C 196.616,87.6346 199.283,91.8013 194.5,101C 187.982,103.32 184.649,101.154 184.5,94.5C 184.363,92.1595 185.03,90.1595 186.5,88.5 Z M 188.5,90.5 C 194.643,91.0262 195.976,93.8595 192.5,99C 190.888,99.7203 189.388,99.5536 188,98.5C 187.278,95.7395 187.445,93.0728 188.5,90.5 Z"/></g>
<g><path style="opacity:0.761" fill="#fefffe" d="M 198.5,88.5 C 200.23,91.3902 201.23,94.7236 201.5,98.5C 203.045,99.4519 204.712,99.7852 206.5,99.5C 206.5,95.8333 206.5,92.1667 206.5,88.5C 207.5,88.5 208.5,88.5 209.5,88.5C 209.665,92.1817 209.499,95.8484 209,99.5C 205.929,101.768 202.596,102.101 199,100.5C 198.501,96.5138 198.334,92.5138 198.5,88.5 Z"/></g>
<g><path style="opacity:0.742" fill="#fefffe" d="M 216.5,88.5 C 218.25,91.3554 219.083,94.6887 219,98.5C 220.356,99.3802 221.856,99.7135 223.5,99.5C 223.177,95.774 223.511,92.1073 224.5,88.5C 225.66,92.4589 225.827,96.4589 225,100.5C 222.333,101.833 219.667,101.833 217,100.5C 216.501,96.5138 216.334,92.5138 216.5,88.5 Z"/></g>
<g><path style="opacity:0.786" fill="#fefffe" d="M 228.5,88.5 C 229.675,88.281 230.675,88.6143 231.5,89.5C 233,91.8333 234.5,94.1667 236,96.5C 236.182,93.7737 236.682,91.1071 237.5,88.5C 238.492,92.7828 238.826,97.1161 238.5,101.5C 237.325,101.719 236.325,101.386 235.5,100.5C 234,98.1667 232.5,95.8333 231,93.5C 230.818,96.2263 230.318,98.8929 229.5,101.5C 228.508,97.2172 228.174,92.8839 228.5,88.5 Z"/></g>
<g><path style="opacity:1" fill="#fefffe" d="M 241.5,88.5 C 242.647,92.6463 242.814,96.9796 242,101.5C 241.501,97.1794 241.334,92.8461 241.5,88.5 Z"/></g>
<g><path style="opacity:0.63" fill="#fefffe" d="M 244.5,88.5 C 245.5,88.5 246.5,88.5 247.5,88.5C 248.022,91.5682 248.855,94.5682 250,97.5C 251.006,94.1552 252.506,91.1552 254.5,88.5C 254.833,89 255.167,89.5 255.5,90C 250.778,105.506 247.111,105.006 244.5,88.5 Z"/></g>
<g><path style="opacity:0.824" fill="#fefffe" d="M 257.5,88.5 C 260.572,88.1826 263.572,88.5159 266.5,89.5C 264.257,90.4742 261.924,90.8076 259.5,90.5C 259.5,91.5 259.5,92.5 259.5,93.5C 268.833,94.1667 268.833,94.8333 259.5,95.5C 259.5,96.8333 259.5,98.1667 259.5,99.5C 261.924,99.1924 264.257,99.5258 266.5,100.5C 263.572,101.484 260.572,101.817 257.5,101.5C 257.5,97.1667 257.5,92.8333 257.5,88.5 Z"/></g>
<g><path style="opacity:0.75" fill="#fefffe" d="M 268.5,88.5 C 271.777,88.2161 274.943,88.5495 278,89.5C 278.918,92.0631 278.418,94.2298 276.5,96C 277.376,97.586 278.376,99.086 279.5,100.5C 278.635,101.583 277.635,101.749 276.5,101C 275.468,98.1261 273.468,96.6261 270.5,96.5C 270.785,98.288 270.452,99.9547 269.5,101.5C 268.508,97.2172 268.174,92.8839 268.5,88.5 Z M 270.5,90.5 C 278.378,91.6016 278.378,92.935 270.5,94.5C 270.5,93.1667 270.5,91.8333 270.5,90.5 Z"/></g>
<g><path style="opacity:0.649" fill="#fefffe" d="M 281.5,88.5 C 284.685,88.0196 287.519,88.6863 290,90.5C 290.591,91.4835 290.257,92.1501 289,92.5C 287.322,90.718 285.489,90.3847 283.5,91.5C 285.566,92.9063 287.732,94.2396 290,95.5C 290.743,97.4406 290.576,99.2739 289.5,101C 286.773,101.818 284.106,101.652 281.5,100.5C 280.355,99.109 280.355,97.7757 281.5,96.5C 283.519,99.9291 285.852,100.262 288.5,97.5C 285.822,96.4452 283.322,95.1118 281,93.5C 280.36,91.735 280.527,90.0683 281.5,88.5 Z"/></g>
<g><path style="opacity:1" fill="#fefffe" d="M 292.5,88.5 C 293.8,90.223 294.467,92.3897 294.5,95C 294.167,97.1667 293.833,99.3333 293.5,101.5C 292.508,97.2172 292.174,92.8839 292.5,88.5 Z"/></g>
<g><path style="opacity:0.772" fill="#fefffe" d="M 296.5,88.5 C 299.572,88.1826 302.572,88.5159 305.5,89.5C 304.675,90.3857 303.675,90.719 302.5,90.5C 302.5,94.1667 302.5,97.8333 302.5,101.5C 301.5,101.5 300.5,101.5 299.5,101.5C 299.5,97.8333 299.5,94.1667 299.5,90.5C 297.821,90.7148 296.821,90.0481 296.5,88.5 Z"/></g>
<g><path style="opacity:0.655" fill="#fefffe" d="M 306.5,88.5 C 309.595,88.6263 311.428,90.293 312,93.5C 313.084,92.3349 313.917,91.0016 314.5,89.5C 315.5,88.1667 316.5,88.1667 317.5,89.5C 314.44,92.9527 312.44,96.9527 311.5,101.5C 310.647,96.8031 308.98,92.4697 306.5,88.5 Z"/></g>
<g><path style="opacity:0.664" fill="#fefffe" d="M 325.5,88.5 C 334.507,87.0107 337.674,90.6774 335,99.5C 325.478,103.988 321.811,100.988 324,90.5C 324.717,89.9558 325.217,89.2891 325.5,88.5 Z M 327.5,90.5 C 333.643,91.0262 334.976,93.8595 331.5,99C 326.504,99.6643 324.67,97.4977 326,92.5C 326.717,91.9558 327.217,91.2891 327.5,90.5 Z"/></g>
<g><path style="opacity:0.794" fill="#fefffe" d="M 337.5,88.5 C 340.247,88.1866 342.914,88.52 345.5,89.5C 343.955,90.4519 342.288,90.7852 340.5,90.5C 340.5,91.5 340.5,92.5 340.5,93.5C 347.167,94.1667 347.167,94.8333 340.5,95.5C 340.5,97.5 340.5,99.5 340.5,101.5C 339.5,101.5 338.5,101.5 337.5,101.5C 337.5,97.1667 337.5,92.8333 337.5,88.5 Z"/></g>
<g><path style="opacity:1" fill="#fefffe" d="M 352.5,88.5 C 353.8,90.223 354.467,92.3897 354.5,95C 354.167,97.1667 353.833,99.3333 353.5,101.5C 352.508,97.2172 352.174,92.8839 352.5,88.5 Z"/></g>
<g><path style="opacity:0.705" fill="#fefffe" d="M 357.5,88.5 C 359.017,88.5106 360.184,89.1772 361,90.5C 363.773,96.9339 365.273,96.2673 365.5,88.5C 366.833,92.8333 366.833,97.1667 365.5,101.5C 363.114,99.2692 361.281,96.6025 360,93.5C 359.818,96.2263 359.318,98.8929 358.5,101.5C 357.508,97.2172 357.174,92.8839 357.5,88.5 Z"/></g>
<g><path style="opacity:0.688" fill="#fefffe" d="M 368.5,88.5 C 371.898,88.1796 375.232,88.513 378.5,89.5C 377.675,90.3857 376.675,90.719 375.5,90.5C 375.5,94.1667 375.5,97.8333 375.5,101.5C 374.167,101.5 372.833,101.5 371.5,101.5C 371.5,97.8333 371.5,94.1667 371.5,90.5C 369.821,90.7148 368.821,90.0481 368.5,88.5 Z"/></g>
<g><path style="opacity:0.824" fill="#fefffe" d="M 380.5,88.5 C 383.572,88.1826 386.572,88.5159 389.5,89.5C 387.257,90.4742 384.924,90.8076 382.5,90.5C 382.5,91.5 382.5,92.5 382.5,93.5C 391.833,94.1667 391.833,94.8333 382.5,95.5C 382.5,96.8333 382.5,98.1667 382.5,99.5C 384.924,99.1924 387.257,99.5258 389.5,100.5C 386.572,101.484 383.572,101.817 380.5,101.5C 380.5,97.1667 380.5,92.8333 380.5,88.5 Z"/></g>
<g><path style="opacity:0.755" fill="#fefffe" d="M 391.5,88.5 C 394.777,88.2161 397.943,88.5495 401,89.5C 401.918,92.0631 401.418,94.2298 399.5,96C 400.376,97.586 401.376,99.086 402.5,100.5C 399.737,101.784 398.07,100.784 397.5,97.5C 396.311,96.5713 394.978,96.238 393.5,96.5C 393.785,98.288 393.452,99.9547 392.5,101.5C 391.508,97.2172 391.174,92.8839 391.5,88.5 Z M 393.5,90.5 C 401.378,91.6016 401.378,92.935 393.5,94.5C 393.5,93.1667 393.5,91.8333 393.5,90.5 Z"/></g>
<g><path style="opacity:0.773" fill="#fefffe" d="M 403.5,88.5 C 407.099,89.9526 409.599,92.6192 411,96.5C 411.182,93.7737 411.682,91.1071 412.5,88.5C 413.492,92.7828 413.826,97.1161 413.5,101.5C 412.325,101.719 411.325,101.386 410.5,100.5C 409.197,98.0324 407.697,95.699 406,93.5C 405.818,96.2263 405.318,98.8929 404.5,101.5C 403.508,97.2172 403.174,92.8839 403.5,88.5 Z"/></g>
<g><path style="opacity:0.619" fill="#fefffe" d="M 419.5,88.5 C 420.5,88.5 421.5,88.5 422.5,88.5C 423.833,92.8333 425.167,97.1667 426.5,101.5C 424.332,100.821 422.332,99.8214 420.5,98.5C 418.603,98.7282 417.27,99.7282 416.5,101.5C 416.407,97.0682 417.407,92.7349 419.5,88.5 Z M 420.5,92.5 C 421.776,93.3864 421.776,94.3864 420.5,95.5C 419.438,94.5754 419.438,93.5754 420.5,92.5 Z"/></g>
<g><path style="opacity:0.809" fill="#fefffe" d="M 426.5,88.5 C 429.898,88.1796 433.232,88.513 436.5,89.5C 435.311,90.4287 433.978,90.762 432.5,90.5C 431.833,105.167 431.167,105.167 430.5,90.5C 428.517,90.8432 427.183,90.1765 426.5,88.5 Z"/></g>
<g><path style="opacity:1" fill="#fefffe" d="M 438.5,88.5 C 439.8,90.223 440.467,92.3897 440.5,95C 440.167,97.1667 439.833,99.3333 439.5,101.5C 438.508,97.2172 438.174,92.8839 438.5,88.5 Z"/></g>
<g><path style="opacity:0.627" fill="#fefffe" d="M 444.5,88.5 C 453.507,87.0107 456.674,90.6774 454,99.5C 450.899,101.72 447.565,102.053 444,100.5C 441.862,96.3184 442.029,92.3184 444.5,88.5 Z M 446.5,90.5 C 452.643,91.0262 453.976,93.8595 450.5,99C 448.888,99.7203 447.388,99.5536 446,98.5C 445.278,95.7395 445.445,93.0728 446.5,90.5 Z"/></g>
<g><path style="opacity:0.777" fill="#fefffe" d="M 456.5,88.5 C 460.115,90.0208 462.615,92.6875 464,96.5C 464.182,93.7737 464.682,91.1071 465.5,88.5C 466.492,92.7828 466.826,97.1161 466.5,101.5C 465.178,101.67 464.011,101.337 463,100.5C 461.92,98.0038 460.586,95.6705 459,93.5C 458.818,96.2263 458.318,98.8929 457.5,101.5C 456.508,97.2172 456.174,92.8839 456.5,88.5 Z"/></g>
<g><path style="opacity:0.623" fill="#fefffe" d="M 471.5,88.5 C 472.822,88.33 473.989,88.6634 475,89.5C 476.167,93 477.333,96.5 478.5,100C 477.407,101.817 476.407,101.65 475.5,99.5C 473.955,98.5481 472.288,98.2148 470.5,98.5C 470.5,99.5 470.5,100.5 470.5,101.5C 469.5,101.5 468.5,101.5 467.5,101.5C 468.435,97.0307 469.768,92.6973 471.5,88.5 Z M 472.5,92.5 C 473.267,93.172 473.934,94.0053 474.5,95C 472.939,95.1881 472.272,94.3547 472.5,92.5 Z"/></g>
<g><path style="opacity:0.81" fill="#fefffe" d="M 480.5,88.5 C 482.414,91.6843 483.08,95.351 482.5,99.5C 484.288,99.2148 485.955,99.5481 487.5,100.5C 485.257,101.474 482.924,101.808 480.5,101.5C 480.5,97.1667 480.5,92.8333 480.5,88.5 Z"/></g>
<g><path style="opacity:0.64" fill="#fefffe" d="M 495.5,88.5 C 498.119,88.2317 500.619,88.565 503,89.5C 503.749,90.635 503.583,91.635 502.5,92.5C 500.593,90.2397 498.593,90.073 496.5,92C 498.788,92.9464 500.955,94.1131 503,95.5C 503.743,97.4406 503.576,99.2739 502.5,101C 499.901,101.769 497.401,101.602 495,100.5C 494.219,99.0563 494.386,97.723 495.5,96.5C 497.185,99.8555 499.185,100.189 501.5,97.5C 499.092,96.5465 496.925,95.2132 495,93.5C 494.36,91.735 494.527,90.0683 495.5,88.5 Z"/></g>
<g><path style="opacity:0.809" fill="#fefffe" d="M 504.5,88.5 C 507.898,88.1796 511.232,88.513 514.5,89.5C 513.311,90.4287 511.978,90.762 510.5,90.5C 509.833,105.167 509.167,105.167 508.5,90.5C 506.517,90.8432 505.183,90.1765 504.5,88.5 Z"/></g>
<g><path style="opacity:0.739" fill="#fefffe" d="M 516.5,88.5 C 518.237,91.008 519.07,94.008 519,97.5C 520.312,99.6576 521.978,99.9909 524,98.5C 524.176,95.1182 524.676,91.7848 525.5,88.5C 526.798,92.7154 526.798,96.8821 525.5,101C 522.571,101.777 519.737,101.61 517,100.5C 516.501,96.5138 516.334,92.5138 516.5,88.5 Z"/></g>
<g><path style="opacity:0.742" fill="#fefffe" d="M 528.5,88.5 C 531.518,88.3354 534.518,88.502 537.5,89C 542.435,98.897 539.435,103.064 528.5,101.5C 528.5,97.1667 528.5,92.8333 528.5,88.5 Z M 530.5,90.5 C 534.57,89.508 536.57,91.008 536.5,95C 536.57,98.992 534.57,100.492 530.5,99.5C 530.5,96.5 530.5,93.5 530.5,90.5 Z"/></g>
<g><path style="opacity:1" fill="#fefffe" d="M 541.5,88.5 C 542.8,90.223 543.467,92.3897 543.5,95C 543.167,97.1667 542.833,99.3333 542.5,101.5C 541.508,97.2172 541.174,92.8839 541.5,88.5 Z"/></g>
<g><path style="opacity:0.789" fill="#fefffe" d="M 546.5,88.5 C 549.572,88.1826 552.572,88.5159 555.5,89.5C 553.257,90.4742 550.924,90.8076 548.5,90.5C 548.5,91.5 548.5,92.5 548.5,93.5C 557.833,94.1667 557.833,94.8333 548.5,95.5C 548.5,96.8333 548.5,98.1667 548.5,99.5C 550.924,99.1924 553.257,99.5258 555.5,100.5C 552.572,101.484 549.572,101.817 546.5,101.5C 546.5,97.1667 546.5,92.8333 546.5,88.5 Z"/></g>
<g><path style="opacity:0.645" fill="#fefffe" d="M 558.5,88.5 C 560.857,88.3367 563.19,88.5034 565.5,89C 567.559,90.1855 567.726,91.3521 566,92.5C 564.403,91.1153 562.57,90.4486 560.5,90.5C 560.5,91.5 560.5,92.5 560.5,93.5C 566.487,92.9773 568.487,95.4773 566.5,101C 563.833,101.667 561.167,101.667 558.5,101C 557.253,99.5064 557.253,98.0064 558.5,96.5C 560.296,99.6999 562.629,100.2 565.5,98C 562.982,96.4977 560.482,94.9977 558,93.5C 557.36,91.735 557.527,90.0683 558.5,88.5 Z"/></g>
<g><path style="opacity:0.638" fill="#fefffe" d="M 576.5,88.5 C 577.822,88.33 578.989,88.6634 580,89.5C 581.5,93.1667 583,96.8333 584.5,100.5C 584,100.833 583.5,101.167 583,101.5C 579.847,97.5708 576.68,97.5708 573.5,101.5C 573.167,101 572.833,100.5 572.5,100C 574.137,96.2559 575.47,92.4225 576.5,88.5 Z M 577.5,92.5 C 580.377,94.8455 580.044,95.6789 576.5,95C 577.252,94.3292 577.586,93.4959 577.5,92.5 Z"/></g>
<g><path style="opacity:0.765" fill="#fefffe" d="M 585.5,88.5 C 589.115,90.0208 591.615,92.6875 593,96.5C 593.182,93.7737 593.682,91.1071 594.5,88.5C 595.492,92.7828 595.826,97.1161 595.5,101.5C 591.901,100.047 589.401,97.3808 588,93.5C 587.818,96.2263 587.318,98.8929 586.5,101.5C 585.508,97.2172 585.174,92.8839 585.5,88.5 Z"/></g>
<g><path style="opacity:0.746" fill="#fefffe" d="M 597.5,88.5 C 600.187,88.3359 602.854,88.5026 605.5,89C 607.028,90.6477 607.695,92.6477 607.5,95C 607.695,97.3523 607.028,99.3523 605.5,101C 602.854,101.497 600.187,101.664 597.5,101.5C 597.5,97.1667 597.5,92.8333 597.5,88.5 Z M 599.5,90.5 C 605.643,91.0262 606.976,93.8595 603.5,99C 602.207,99.49 600.873,99.6567 599.5,99.5C 599.5,96.5 599.5,93.5 599.5,90.5 Z"/></g>
<g><path style="opacity:0.809" fill="#fefffe" d="M 613.5,88.5 C 616.898,88.1796 620.232,88.513 623.5,89.5C 622.311,90.4287 620.978,90.762 619.5,90.5C 618.833,105.167 618.167,105.167 617.5,90.5C 615.517,90.8432 614.183,90.1765 613.5,88.5 Z"/></g>
<g><path style="opacity:0.671" fill="#fefffe" d="M 625.5,88.5 C 628.777,88.2161 631.943,88.5495 635,89.5C 635.896,92.025 635.396,94.1917 633.5,96C 634.701,96.9025 635.535,98.0692 636,99.5C 637.716,96.3599 639.049,93.0266 640,89.5C 641.049,88.4829 642.216,88.3162 643.5,89C 645.696,93.0437 646.696,97.2103 646.5,101.5C 645.387,99.9686 643.887,98.9686 642,98.5C 637.493,102.931 633.659,102.431 630.5,97C 629.552,96.5172 628.552,96.3505 627.5,96.5C 627.785,98.288 627.452,99.9547 626.5,101.5C 625.508,97.2172 625.174,92.8839 625.5,88.5 Z M 627.5,90.5 C 635.375,91.3205 635.375,92.6538 627.5,94.5C 627.5,93.1667 627.5,91.8333 627.5,90.5 Z"/></g>
<g><path style="opacity:0.741" fill="#fefffe" d="M 649.5,88.5 C 652.187,88.3359 654.854,88.5026 657.5,89C 659.028,90.6477 659.695,92.6477 659.5,95C 659.695,97.3523 659.028,99.3523 657.5,101C 654.854,101.497 652.187,101.664 649.5,101.5C 649.5,97.1667 649.5,92.8333 649.5,88.5 Z M 651.5,90.5 C 657.661,90.9435 658.995,93.7768 655.5,99C 654.207,99.49 652.873,99.6567 651.5,99.5C 651.5,96.5 651.5,93.5 651.5,90.5 Z"/></g>
<g><path style="opacity:0.839" fill="#fefffe" d="M 661.5,88.5 C 664.572,88.1826 667.572,88.5159 670.5,89.5C 668.257,90.4742 665.924,90.8076 663.5,90.5C 663.5,91.5 663.5,92.5 663.5,93.5C 672.833,94.1667 672.833,94.8333 663.5,95.5C 663.5,96.8333 663.5,98.1667 663.5,99.5C 665.924,99.1924 668.257,99.5258 670.5,100.5C 667.572,101.484 664.572,101.817 661.5,101.5C 661.5,97.1667 661.5,92.8333 661.5,88.5 Z"/></g>
<g><path style="opacity:0.487" fill="#fefffe" d="M 85.5,96.5 C 88.5,96.1667 89.8333,97.5 89.5,100.5C 86.5,100.833 85.1667,99.5 85.5,96.5 Z"/></g>
<g><path style="opacity:0.464" fill="#fefffe" d="M 30.5,99.5 C 33.2544,100.366 35.9211,101.533 38.5,103C 37.8742,103.75 37.3742,104.584 37,105.5C 35.0246,105.512 32.8579,105.178 30.5,104.5C 30.5,102.833 30.5,101.167 30.5,99.5 Z"/></g>
<g><path style="opacity:0.404" fill="#fefffe" d="M 82.5,103.5 C 82.5,102.833 82.1667,102.5 81.5,102.5C 81.259,99.001 82.0924,98.6677 84,101.5C 84.3333,101.167 84.6667,100.833 85,100.5C 85.4828,101.448 85.6495,102.448 85.5,103.5C 84.5,103.5 83.5,103.5 82.5,103.5 Z"/></g>
<g><path style="opacity:0.468" fill="#fefffe" d="M 81.5,102.5 C 82.1667,102.5 82.5,102.833 82.5,103.5C 82.4226,104.75 81.756,105.583 80.5,106C 78.8988,106.273 77.3988,106.773 76,107.5C 75.6667,107.167 75.3333,106.833 75,106.5C 74.5172,107.448 74.3505,108.448 74.5,109.5C 72.5,109.5 70.5,109.5 68.5,109.5C 68.2865,107.856 68.6198,106.356 69.5,105C 73.1013,104.557 76.4346,103.39 79.5,101.5C 80.1835,101.863 80.8501,102.196 81.5,102.5 Z"/></g>
<g><path style="opacity:0.584" fill="#fefffe" d="M 39.5,103.5 C 41.1172,104.038 42.7839,104.371 44.5,104.5C 44.7852,106.288 44.4519,107.955 43.5,109.5C 42.5745,108.359 41.7412,108.359 41,109.5C 38.7624,107.791 38.2624,105.791 39.5,103.5 Z"/></g>
<g><path style="opacity:0.548" fill="#fefffe" d="M 52.5,106.5 C 54.8771,106.784 57.0438,106.784 59,106.5C 59.6667,108.167 59.6667,109.833 59,111.5C 55.6503,110.582 52.1503,110.248 48.5,110.5C 48.6691,105.959 48.0025,105.626 46.5,109.5C 45.5713,108.311 45.238,106.978 45.5,105.5C 48.0593,105.198 50.3926,105.532 52.5,106.5 Z"/></g>
<g><path style="opacity:0.539" fill="#fefffe" d="M 64.5,107.5 C 64.8212,105.952 65.8212,105.285 67.5,105.5C 67.5,107.167 67.5,108.833 67.5,110.5C 65.1933,110.014 63.0266,110.014 61,110.5C 60.2634,107.064 61.4301,106.064 64.5,107.5 Z"/></g>
</svg>
